<?xml version="1.0" encoding="utf-8"?>
<!-- Generator: Adobe Illustrator 16.0.3, SVG Export Plug-In . SVG Version: 6.00 Build 0)  -->
<!DOCTYPE svg PUBLIC "-//W3C//DTD SVG 1.1//EN" "http://www.w3.org/Graphics/SVG/1.1/DTD/svg11.dtd">
<svg version="1.1" id="Layer_1" xmlns="http://www.w3.org/2000/svg" xmlns:xlink="http://www.w3.org/1999/xlink" x="0px" y="0px"
	 width="139.844px" height="45.441px" viewBox="0 0 139.844 45.441" enable-background="new 0 0 139.844 45.441"
	 xml:space="preserve">
<g>
	<path fill="#FDEC0A" d="M127.128,22.116L70.86,0.283C70.39,0.101,69.763,0,69.095,0c-0.667,0-1.293,0.099-1.763,0.281l-1.357,0.526
		c0,0,53.841,20.895,54.377,21.103c0.406,0.159,0.658,0.5,0.659,0.891c0,0.393-0.253,0.738-0.659,0.896L66.208,44.606l1.41,0.55
		c0.471,0.184,1.1,0.285,1.769,0.285c0.666,0,1.29-0.1,1.758-0.282l55.983-21.619c0.425-0.164,0.67-0.422,0.671-0.707
		C127.801,22.547,127.556,22.285,127.128,22.116"/>
	<path fill="#FDEC0A" d="M139.172,22.172L83.256,0.479c-0.472-0.182-1.1-0.283-1.767-0.283s-1.293,0.101-1.764,0.282l-1.356,0.526
		c0,0,53.489,20.754,54.025,20.962c0.407,0.159,0.659,0.5,0.659,0.891c0,0.393-0.252,0.738-0.659,0.896L78.924,44.409l1.41,0.55
		c0.472,0.184,1.1,0.284,1.77,0.284c0.666,0,1.29-0.1,1.758-0.28l55.311-21.367c0.426-0.164,0.671-0.422,0.672-0.707
		C139.845,22.602,139.6,22.341,139.172,22.172"/>
	<path fill="#FDEC0A" d="M115.073,22.142l-55.4-21.587c-0.499-0.194-1.162-0.287-1.818-0.28c-0.662-0.009-1.332,0.083-1.835,0.277
		L0.643,21.978c-0.853,0.33-0.86,0.998-0.006,1.327l55.399,21.588c0.498,0.194,1.162,0.287,1.819,0.28
		c0.661,0.009,1.331-0.083,1.834-0.277l55.377-21.426C115.919,23.139,115.926,22.471,115.073,22.142"/>
	<path fill="#010101" d="M25.965,22.427c0-2.555,1.657-4.005,3.778-4.005c1.256,0,2.317,0.432,3.042,1.461l-1.375,1.212
		c-0.368-0.584-0.931-0.887-1.548-0.887c-0.985,0-1.894,0.584-1.894,2.219c0,1.624,0.877,2.23,1.862,2.23
		c0.671,0,1.18-0.379,1.537-1.05l1.537,0.985c-0.725,1.288-1.916,1.862-3.172,1.862C27.514,26.454,25.965,24.906,25.965,22.427"/>
	<g>
		<path fill="none" d="M37.353,20.208c-0.974,0-1.938,0.584-1.938,2.219c0,1.634,0.964,2.219,1.938,2.219
			c0.985,0,1.938-0.585,1.938-2.219C39.291,20.792,38.338,20.208,37.353,20.208z"/>
		<path fill="#010101" d="M37.353,18.422c-2.035,0-3.941,1.244-3.941,4.005c0,2.771,1.906,4.005,3.941,4.005
			c2.035,0,3.941-1.234,3.941-4.005C41.294,19.666,39.388,18.422,37.353,18.422z M37.353,24.646c-0.974,0-1.938-0.585-1.938-2.219
			c0-1.635,0.964-2.219,1.938-2.219c0.985,0,1.938,0.584,1.938,2.219C39.291,24.061,38.338,24.646,37.353,24.646z"/>
	</g>
	<polygon fill="#010101" points="47.29,24.483 47.29,26.281 42.559,26.281 42.559,18.595 44.497,18.595 44.497,24.483 	"/>
	<polygon fill="#010101" points="53.838,26.28 53.34,24.938 51.153,24.938 51.663,23.466 52.789,23.466 51.804,20.835 49.812,26.28 
		47.787,26.28 50.926,18.595 52.811,18.595 55.896,26.28 	"/>
	<path fill="#010101" d="M56.284,25.263l1.202-1.418c0.617,0.595,1.191,0.813,1.818,0.813c0.574,0,1.061-0.227,1.061-0.639
		c0-0.411-0.368-0.617-1.623-0.877c-1.115-0.238-2.112-0.617-2.112-2.284c0-1.364,1.137-2.436,2.999-2.436
		c1.267,0,2.122,0.465,2.728,0.974l-1.125,1.473c-0.422-0.433-0.91-0.65-1.603-0.65c-0.638,0-1.028,0.217-1.028,0.596
		c0,0.4,0.357,0.541,1.277,0.736c1.191,0.249,2.436,0.573,2.436,2.338c0,1.516-1.158,2.566-3.053,2.566
		C57.778,26.454,56.89,25.902,56.284,25.263"/>
	<g>
		<path fill="none" d="M69.219,20.305h-1.05v1.732h0.942c0.823,0,1.245-0.238,1.245-0.921
			C70.355,20.521,69.977,20.305,69.219,20.305z"/>
		<path fill="#010101" d="M70.627,23.368c1.093-0.346,1.731-1.093,1.731-2.284c0-1.602-1.213-2.49-3.063-2.49h-3.064v7.687h1.938
			v-2.685h0.368l1.655,2.685h2.437L70.627,23.368z M69.111,22.037h-0.942v-1.732h1.05c0.758,0,1.137,0.216,1.137,0.812
			C70.355,21.799,69.934,22.037,69.111,22.037z"/>
	</g>
	<polygon fill="#010101" points="78.831,26.28 78.333,24.938 76.146,24.938 76.655,23.466 77.781,23.466 76.797,20.835 
		74.804,26.28 72.779,26.28 75.92,18.595 77.803,18.595 80.889,26.28 	"/>
	<rect x="81.829" y="18.594" fill="#010101" width="1.938" height="7.686"/>
	<polygon fill="#010101" points="90.045,24.483 90.045,26.281 85.314,26.281 85.314,18.595 87.252,18.595 87.252,24.483 	"/>
</g>
</svg>
