<svg xmlns="http://www.w3.org/2000/svg" viewBox="0 0 527.08 54.12"><defs><style>.cls-1{fill:#424246;}</style></defs><g id="Calque_2" data-name="Calque 2"><g id="Calque_1-2" data-name="Calque 1"><path class="cls-1" d="M24.59,15.12c-2.82,0-4.74.6-5.54,1.81-.71,1-.81,1.81-.81,5.84v7.56c0,3.73.61,5.75,2.22,6.85a6,6,0,0,0,3.63,1.32H65.3C64.8,44,64.29,46,63,47.87,60.16,52,53.61,54.12,44,54.12H24.19c-8.47,0-15.62-2-18.85-5.25C1.61,45.25,0,40.21,0,32.85V19.75C0,12.4,2,7.26,6.25,4c3.83-2.92,9.57-4,20.25-4H39.71c11.58,0,18,1.51,20.86,4.74,2,2.32,2.51,3.83,3.82,10.38Z"></path><path class="cls-1" d="M121,.4c7,0,9.88.51,13.2,2.42,5.25,2.82,8.17,8.77,8.17,16.23V34.36c0,7.06-1.31,11.79-4.13,14.92-3.53,3.83-7.16,4.84-17.94,4.84H96.55c-8.37,0-11.49-.31-13.81-1.11-6.85-2.52-10.58-9.28-10.58-18.95V20.86c0-7.06,1.31-11.59,4.43-15.12C80.22,1.71,84.25.4,93.42.4Zm-3.52,38.8c5.94,0,7.15-1.21,7.15-7.16V22.17c0-5.34-1.51-6.65-7.76-6.65H97.76c-5.35,0-7.16,1.81-7.16,7v9.78a8.9,8.9,0,0,0,2,5.84c.7.81,2.82,1.11,6.44,1.11Z"></path><path class="cls-1" d="M150.47.4h16.72c9.78,0,11.19.51,15.12,5.65l22.47,29V.4h17.74V54.12h-20c-3.73,0-5.75-.61-7.46-2.32-.61-.61-.61-.61-4.44-5.95L168.51,17.63V54.12h-18Z"></path><path class="cls-1" d="M267.87,40.61c6.55,0,7.76-.5,7.76-3a3.7,3.7,0,0,0-.7-2.62c-.71-.51-.71-.51-6.45-.71l-22.17-1.11c-8.37-.5-11.59-1.51-14.21-4.73C230,25.8,229,22.27,229,17.23c0-6.45,1.31-10.28,4.33-13,3.32-3,7.56-4,17.23-4h17.84C279,.2,284.3,1.61,287.42,5c1.92,2.11,2.32,3.22,3.53,8.67H253c-4.94,0-5.85.4-5.85,2.51,0,2.32,1,3,4.84,3.13l23.58,1c7.76.3,11.09,1.41,13.71,4.53,2.42,2.82,3.32,6.15,3.32,11.79,0,7.46-1.21,11.29-4.23,13.7-3.43,2.93-7.26,3.74-17.13,3.74H251.35c-10.69,0-16-1.42-19.35-5-1.81-2-2.22-3.13-3.13-8.47Z"></path><path class="cls-1" d="M347.89.4c7,0,9.88.51,13.21,2.42,5.23,2.82,8.16,8.77,8.16,16.23V34.36c0,7.06-1.31,11.79-4.14,14.92-3.52,3.83-7.15,4.84-17.93,4.84H323.4c-8.36,0-11.48-.31-13.8-1.11C302.75,50.49,299,43.73,299,34.06V20.86c0-7.06,1.31-11.59,4.43-15.12,3.63-4,7.66-5.34,16.83-5.34Zm-3.53,38.8c5.95,0,7.16-1.21,7.16-7.16V22.17c0-5.34-1.51-6.65-7.76-6.65H324.61c-5.34,0-7.15,1.81-7.15,7v9.78a9,9,0,0,0,2,5.84c.71.81,2.83,1.11,6.46,1.11Z"></path><path class="cls-1" d="M395.57.4V40.21h34.36V54.12H394.25c-8.06,0-11.38-.91-14-3.93-2.12-2.42-2.92-5.15-2.92-10V.4Z"></path><path class="cls-1" d="M455,.4V54.12H437V.4Z"></path><path class="cls-1" d="M502.39,40.61c6.55,0,7.76-.5,7.76-3a3.65,3.65,0,0,0-.71-2.62c-.7-.51-.7-.51-6.44-.71l-22.17-1.11c-8.37-.5-11.59-1.51-14.21-4.73-2.12-2.62-3.13-6.15-3.13-11.19,0-6.45,1.31-10.28,4.34-13,3.32-3,7.55-4,17.23-4h17.83C513.48.2,518.82,1.61,521.94,5c1.91,2.11,2.32,3.22,3.53,8.67h-38c-4.94,0-5.85.4-5.85,2.51,0,2.32,1,3,4.84,3.13l23.58,1c7.76.3,11.09,1.41,13.71,4.53,2.41,2.82,3.32,6.15,3.32,11.79,0,7.46-1.21,11.29-4.23,13.7-3.43,2.93-7.26,3.74-17.13,3.74H485.86c-10.68,0-16-1.42-19.34-5-1.82-2-2.22-3.13-3.13-8.47Z"></path></g></g></svg>