<svg version="1.2" xmlns="http://www.w3.org/2000/svg" viewBox="0 0 1552 215" width="1552" height="215"><style>.a{fill:#009cde}.b{fill:#003087}</style><path fill-rule="evenodd" class="a" d="m157.3 1h158.2v209.9z"/><path fill-rule="evenodd" class="a" d="m157.3 1h-157.3v209.9z"/><path fill-rule="evenodd" class="b" d="m391.4 210.9h210.3v-46.5h-159.7v-37.1h132l-33.2-44.2h-98.8v-34.7h159.7v-47.4h-210.3z"/><path fill-rule="evenodd" class="b" d="m1043.4 107.5c4 3.5 7.4 7.5 10.3 12 2.8 4.4 5 9.2 6.5 14.3 1.6 5 2.3 10.3 2.4 15.6 0 34.7-22.2 61.5-79.9 61.5h-130.4v-209.9h117.8c60.9 0 79.9 23.7 79.9 57.6-0.2 3.9-0.7 7.7-1.6 11.4-0.9 3.8-2.3 7.4-4 10.9-1.7 3.4-3.7 6.7-6.1 9.7-2.4 3.1-5.1 5.8-8.1 8.3 4.8 2.2 9.2 5.1 13.2 8.6zm-141.3-18.9h70.4c21.3 0 28.4-6.3 28.4-22.9 0-14.2-8.7-21.3-28.4-21.3h-70.4zm105.2 58.4c0-15.8-11.1-20.5-30.9-20.5h-73.5v41h73.5c20.6 0 30.1-6.3 30.9-20.5z"/><path fill-rule="evenodd" class="b" d="m1240.5 99.7c-1.6 41.8-22.9 68.6-56.1 68.6-33.2 0-51.4-25.2-53-67.1v-100.2h-50.6v98.7c0 71.8 41.9 115.2 103.6 115.2 60.8 0 106.7-43.4 106.7-115.2v-98.7h-50.6z"/><path fill-rule="evenodd" class="b" d="m1552 106c0 61.5-45.9 104.9-111.5 104.9h-120.2v-209.9h120.2c69.6 0 111.5 44.2 111.5 105zm-51.4 0.8c0-37.9-23.7-58.4-60.1-58.4h-69.6v116h69.6c35.6 0 60.1-22.9 60.1-57.6z"/><path fill-rule="evenodd" class="b" d="m822.8 88.8c-3 8.1-7.7 15.5-13.6 21.8-6 6.3-13.1 11.4-21.1 14.9-7.9 3.6-16.5 5.5-25.1 5.7l60 79.7h-58.5l-82.2-109.7v109.7h-50.6v-209.9h127.3c35.6 0 66.4 26.8 68 62.3 0.3 8.7-1.1 17.3-4.2 25.5zm-40.1-23.1c0-11.8-7.9-21.3-25.3-21.3h-74.3v43.4h74.3c19 0 24.5-9.5 25.3-22.1z"/></svg>