<svg height="129.822697" viewBox="0 0 23.438114 4.0195449" width="770.281334" xmlns="http://www.w3.org/2000/svg"><g fill-rule="evenodd" stroke-width=".264583" transform="translate(-142.074608 -138.410447)"><path d="m143.96823 142.21356h.55615v-3.48509h-.55615z" fill="#ec4498"/><path d="m144.52412 142.21356h.8808v-3.67082h-.8808z" fill="#892b90"/><path d="m143.55098 142.21356h.41725v-3.34539h-.41725z" fill="#130b01"/><path d="m145.82217 142.21356h.60245v-3.48509h-.60245z" fill="#90d2c5"/><path d="m146.42436 142.21356h.88106v-3.67082h-.88106z" fill="#00929f"/><path d="m145.40492 142.21356h.41725v-3.34539h-.41725zm1.90023 0h.41725v-3.34539h-.41725z" fill="#130b01"/><path d="m147.72214 142.21356h.27808v-3.06652h-.27808z" fill="#c0af2c"/><path d="m142.2069 142.21356h.37094v-3.53112h-.37094z" fill="#fdb924"/><path d="m142.57784 142.21356h.64876v-3.53112h-.64876z" fill="#f68427"/><path d="m143.22687 142.21356h.32411v-3.53112h-.32411z" fill="#d31245"/><path d="m148.50901 138.85494h1.23296v.44662h.0127c.25823-.38814.63235-.53049 1.09722-.53049.36143 0 .74878.18786.90356.52388.0516-.0386.30982-.52388 1.14247-.52388.85857 0 1.14882.59531 1.14882 1.13877v2.30372h-1.27794v-1.81848c0-.31697-.0323-.60166-.41963-.60166-.32279 0-.43233.25241-.43233.60166v1.81848h-1.27794v-1.81848c0-.31697-.0323-.60166-.41962-.60166-.3228 0-.43233.25241-.43233.60166v1.81848h-1.27794v-3.35835zm9.22972 2.608c0 .25241.0127.53711.15479.75062h-1.30387a.89852499.89852499 0 0 1 -.045-.31697h-.0132c-.27093.31062-.66463.40111-1.07765.40111-.64558 0-1.1811-.31062-1.1811-1.016 0-1.06124 1.23931-1.02235 1.89098-1.14538.17462-.0323.34846-.0841.34846-.29766 0-.22648-.21273-.31035-.41937-.31035-.3937 0-.47096.20029-.47757.3429h-1.18772c.0389-.94483.92948-1.10014 1.7235-1.10014 1.60073 0 1.5875.66649 1.5875 1.31366v1.37848zm-1.2266-.75697c-.15479.0775-.32915.12277-.50324.16166-.28416.0648-.4326.136-.4326.36248 0 .15531.16801.31062.40032.31062.29025 0 .5162-.17463.53552-.52414zm3.77586-.576c-.013-.13599-.0582-.24606-.14181-.31697-.0775-.0714-.18733-.11007-.32279-.11007-.49054 0-.56145.42704-.56145.83476 0 .40746.0709.82815.56145.82815.27728 0 .47095-.22648.49688-.4916h1.21973c-.1225.91229-.83873 1.42346-1.74254 1.42346-1.00674 0-1.81372-.69876-1.81372-1.76001 0-1.06124.80698-1.76662 1.81372-1.76662.87788 0 1.62639.43339 1.70391 1.3589zm2.63975.69242c.0323.38179.25162.65352.65194.65352.20637 0 .43232-.0778.53578-.23945h1.1938c-.25824.72496-.9615 1.06124-1.72323 1.06124-1.0713 0-1.87828-.63394-1.87828-1.75339 0-.97737.71014-1.77324 1.76847-1.77324 1.32953 0 1.90421.74427 1.90421 2.05132zm1.22635-.66675c0-.31036-.23231-.56277-.56145-.56277-.381 0-.60034.20055-.65855.56303h1.22z" fill="#130b01"/></g></svg>