<?xml version="1.0" encoding="UTF-8"?>
<svg id="Layer_1" data-name="Layer 1" xmlns="http://www.w3.org/2000/svg" viewBox="0 0 750 224.06">
  <defs>
    <style>
      .cls-1 {
        fill: none;
      }

      .cls-1, .cls-2 {
        stroke-width: 0px;
      }

      .cls-2 {
        fill: #fff;
      }

      .cls-4 {
        clip-path: url(#clippath);
      }

      .cls-3 {
        fill: #12192d;
      }
    </style>
    <clipPath id="clippath">
      <rect class="cls-2" width="750" height="224.06"/>
    </clipPath>
  </defs>
  <path class="cls-2" d="m112.03,0C50.16,0,0,50.16,0,112.03s50.16,112.03,112.03,112.03,112.03-50.16,112.03-112.03S173.91,0,112.03,0m7.71,177.11h-60.37l18.75-19.17h33.9c25.22-.57,45.21-21.47,44.64-46.7-.55-24.42-20.22-44.09-44.64-44.64h-30.44v55.24h33.03l-18.73,19.17h-29.15c-3.46,0-6.26-2.8-6.26-6.26V47h57.9c35.93-.38,65.36,28.45,65.74,64.38.38,35.93-28.45,65.36-64.38,65.74"/>
  <path class="cls-2" d="m281.64,137.51v36.54h-24.67V50.09h57.46c25.03,0,45.22,15.82,45.22,43.88,0,26.58-20.18,43.56-45.22,43.56l-32.79-.02Zm0-66.12v44.85h30.02c13.05,0,22.63-9.05,22.63-22.29,0-14.43-9.77-22.56-22.63-22.56h-30.02Z"/>
  <path class="cls-2" d="m426.4,50.09c40.02,0,62.66,23.76,62.66,61.94s-23.09,62.1-62.66,62.1h-53.44V50.09h53.44Zm37.37,61.94c0-25.94-12.24-40.65-40.02-40.65h-26.12v81.48h26.12c28.06-.09,40.02-15.18,40.02-40.93v.09Z"/>
  <polygon class="cls-2" points="571.25 136.14 529.52 89.35 529.52 174.02 504.92 174.02 504.92 50.09 526.28 50.09 573.23 105.52 620 50.09 641.18 50.09 641.18 174.13 616.65 174.13 616.65 89.35 575.08 136.21 571.25 136.14"/>
  <path class="cls-2" d="m743.79,55.94l-2.1,21.94c-6.49-3.83-22.57-7.94-35.91-7.94s-23.09,4.11-23.09,14.32,8.75,12.17,17.25,14.71l17.9,5.31c20.46,6.03,32.17,14.78,32.17,33.79,0,22.01-18.73,37.81-47.04,37.81-17.55,0-37.36-4.36-45.96-9.24l2.01-22.01c6.12,3.83,26.31,9.24,41.76,9.24,13.05,0,23.46-4.62,23.46-14.71,0-7.85-4.62-11.32-15.15-14.16l-19.66-5.29c-15.8-4.3-32.33-12.89-32.33-33.51,0-22.93,17.99-38.11,46.95-38.11,13.66-.26,27.21,2.42,39.75,7.85"/>
  <rect class="cls-1" width="750" height="224.06"/>
</svg>