<?xml version="1.0" encoding="UTF-8"?>
<svg id="Logo" xmlns="http://www.w3.org/2000/svg" viewBox="0 0 637.8 496.06">
  <defs>
    <style>
      .cls-1 {
        fill: #fff;
      }

      .cls-1, .cls-2, .cls-3 {
        stroke-width: 0px;
      }

      .cls-2 {
        fill: #ec6726;
      }

      .cls-3 {
        fill: #002643;
      }
    </style>
  </defs>
  <rect class="cls-2" width="637.8" height="496.06"/>
  <g>
    <path class="cls-3" d="m531.5,177.12H148.73l43.08-28.73c6.57-4.38,14.29-6.72,22.18-6.72h285.8s-140.7-93.84-140.7-93.84c-.7-.48-1.44-.95-2.15-1.42-21.73-14.64-54.36-14.64-76.09,0-.72.48-1.44.94-2.15,1.42L66.6,189.29h0c-4.68,3.2-8.98,6.93-12.8,11.12-41.01,45.63-8.95,118.29,52.5,118.53h382.77l-43.08,28.73c-6.57,4.38-14.29,6.72-22.19,6.72H138.01s140.71,93.84,140.71,93.84c.7.49,1.44.95,2.15,1.43,21.73,14.64,54.36,14.64,76.09,0,.72-.48,1.44-.94,2.14-1.42l212.1-141.45h0c4.69-3.21,9.01-6.96,12.84-11.16,11.73-12.89,18.35-30.15,18.33-47.58,0-39.16-31.73-70.9-70.87-70.9Z"/>
    <g>
      <polygon class="cls-1" points="128.97 205.05 144.69 205.05 150.95 265.47 151.32 270.38 151.68 270.38 152.42 264.85 160.65 205.05 176 205.05 184.35 264.73 185.08 270.38 185.33 270.38 185.82 265.47 191.84 205.05 207.68 205.05 195.77 291.01 176.86 291.01 169 239.31 168.51 233.42 168.26 233.42 167.77 239.31 160.03 291.01 140.02 291.01 128.97 205.05"/>
      <rect class="cls-1" x="214.1" y="205.05" width="15.72" height="85.95"/>
      <polygon class="cls-1" points="292.62 291.01 292.62 218.92 280.91 218.92 280.91 205.05 318.9 205.05 318.9 218.92 307.21 218.92 307.21 291.01 292.62 291.01"/>
      <polygon class="cls-1" points="399.63 291.01 369.92 291.01 369.92 205.05 385.64 205.05 385.64 277.13 399.63 277.13 399.63 291.01"/>
      <polygon class="cls-1" points="494.55 291.01 510.88 291.01 489.41 238.54 510.51 205.05 493.45 205.05 473.8 237.98 473.8 205.05 458.08 205.05 458.08 291.01 473.8 291.01 473.8 260.58 479.64 252.66 494.55 291.01"/>
      <polygon class="cls-1" points="559.45 205.05 541.16 260.31 541.4 291.01 525.56 291.01 525.81 260.31 507.51 205.05 524.33 205.05 533.67 240.3 542.75 205.05 559.45 205.05"/>
      <polygon class="cls-1" points="325.61 291.01 325.61 205.05 360.82 205.05 360.82 218.93 340.43 218.93 340.43 238.33 359.08 238.33 359.08 252.08 340.43 252.08 340.43 277.13 360.87 277.13 360.87 291.01 325.61 291.01"/>
      <path class="cls-1" d="m123.32,258.16c-.94-2.99-2.3-5.7-4.45-8.01-2.05-2.2-5.22-4.65-9.52-7.37l-8.35-4.79c-2.05-1.06-3.51-2.71-4.28-4.39-.78-1.68-1.17-4.07-1.17-7.18,0-2.05.16-3.7.49-4.97.33-1.27.96-2.25,1.9-2.95.94-.69,2.31-1.04,4.11-1.04,2.46,0,4.17.72,5.16,2.15.89,1.29,1.66,3.61,1.81,6.95.1,1.73.26,4.11.28,5.91l15.1-2.11c0-6.22-.7-11.19-2.09-14.92-1.39-3.72-3.7-6.57-6.94-8.53-3.23-1.96-7.67-2.95-13.32-2.95s-9.53.99-12.76,2.66c-3.24,1.68-5.61,4.09-7.12,7.24-1.52,3.15-2.27,7.06-2.27,11.73,0,4.91.39,8.8,1.17,11.67.78,2.87,2.17,5.17,4.13,7.38,1.96,2.21,4.83,4.46,8.6,6.75l9.33,5.53c2.21,1.14,3.55,2.7,4.45,4.5.9,1.8,1.35,4.59,1.35,8.35,0,3.19-.47,5.46-1.41,6.82-.94,1.35-2.72,2.02-5.34,2.02s-4.4-.88-5.34-2.64c-.71-1.33-1.36-3.43-1.64-6.27-.04-.31-.07-.63-.08-.94-.1-1.78-.38-4.41-.3-6.29,0-.04.01-.08.01-.12l-15.49,2.14c0,6.38.71,11.54,2.15,15.47,1.43,3.93,3.81,6.94,7.12,9.02,3.32,2.09,7.71,3.13,13.2,3.13s9.46-.75,12.86-2.43c3.4-1.68,5.91-4.19,7.55-7.55,1.64-3.35,2.46-7.69,2.46-13.02,0-4.5-.42-7.97-1.36-10.96"/>
      <path class="cls-1" d="m448.61,258.16c-.94-2.99-2.3-5.7-4.45-8.01-2.05-2.2-5.22-4.65-9.52-7.37l-8.35-4.79c-2.05-1.06-3.51-2.71-4.28-4.39-.78-1.68-1.17-4.07-1.17-7.18,0-2.05.16-3.7.49-4.97.33-1.27.96-2.25,1.9-2.95.94-.69,2.31-1.04,4.11-1.04,2.46,0,4.17.72,5.16,2.15.89,1.29,1.66,3.61,1.81,6.95.1,1.73.26,4.11.28,5.91l15.1-2.11c0-6.22-.7-11.19-2.09-14.92-1.39-3.72-3.7-6.57-6.94-8.53-3.23-1.96-7.67-2.95-13.32-2.95s-9.53.99-12.76,2.66c-3.23,1.68-5.61,4.09-7.12,7.24-1.52,3.15-2.27,7.06-2.27,11.73,0,4.91.39,8.8,1.17,11.67.78,2.87,2.17,5.17,4.13,7.38,1.96,2.21,4.83,4.46,8.6,6.75l9.33,5.53c2.21,1.14,3.55,2.7,4.45,4.5.9,1.8,1.35,4.59,1.35,8.35,0,3.19-.47,5.46-1.41,6.82-.94,1.35-2.72,2.02-5.34,2.02s-4.4-.88-5.34-2.64c-.71-1.33-1.36-3.43-1.64-6.27-.04-.31-.07-.63-.08-.94-.1-1.78-.38-4.41-.3-6.29,0-.04.01-.08.01-.12l-15.49,2.14c0,6.38.71,11.54,2.15,15.47,1.43,3.93,3.81,6.94,7.12,9.02,3.32,2.09,7.71,3.13,13.2,3.13s9.46-.75,12.86-2.43c3.4-1.68,5.91-4.19,7.55-7.55,1.64-3.35,2.46-7.69,2.46-13.02,0-4.5-.42-7.97-1.36-10.96"/>
      <polygon class="cls-1" points="240.69 291.01 240.69 205.05 274.2 205.05 274.2 218.93 255.51 218.93 255.51 238.33 274.26 238.33 274.26 252.08 255.51 252.08 255.51 277.13 274.26 277.13 274.26 291.01 240.69 291.01"/>
    </g>
  </g>
</svg>