<svg xmlns="http://www.w3.org/2000/svg" viewBox="0 0 173.89 170.34"><path fill="#00aeef" d="M90.39 1.89c10.76 17.71 21 35.67 31 53.57l-69.89-.05 3.02-5.65L82.08 1.51c2.27-1.89 6.42-2.26 8.31.38ZM137.72 83.92c7.93 13.57 16.09 27.08 23.83 40.65.57 2.26.19 3.96-.94 5.66-1.7 2.45-4.91 2.07-7.55 2.64h-52.5l.02-48.94h37.14ZM35.74 83.94c-7.93 13.57-16.1 27.07-23.84 40.64-.57 2.26-.19 3.96.94 5.65 1.7 2.45 4.91 2.07 7.55 2.64h52.5V83.95H35.75Z"/><path d="M13.29 170.1H6.51v-19.5H0v-5.88h20.13v5.88h-6.84v19.5Z"/><path d="M26.8 154.91h10.84v4.7H26.8v4.94h11.8v5.55H20.02v-25.38h18.34v5.55H26.8v4.64ZM77.23 160.53v.75c0 2.77-.03 5.27-2.34 7.2-2.3 1.9-5.12 1.86-8.07 1.86-6.92 0-11.97-.34-11.97-9.61v-6.57c0-8.39 4.51-9.61 11.97-9.61 6.97 0 10.24.71 10.38 8.33v.99h-6.98v-.99c-.25-2.27-1.83-2.44-4.14-2.44-3.87 0-4.24 1.18-4.24 4.8v3.96c0 3.79.17 5.25 4.24 5.25 2.81 0 4.16-.2 4.16-3.18v-.75h6.99ZM104.02 170.1h-6.77v-9.94H88.4v9.94h-6.78v-25.38h6.78v9.54h8.85v-9.54h6.77v25.38ZM115.47 154.91h10.85v4.7h-10.85v4.94h11.8v5.55H108.7v-25.38h18.34v5.55h-11.56v4.64ZM131.81 144.72h13.09c5.87.1 8.75 1.35 8.75 7.68 0 4.23 0 6.7-4.82 7.82v.27c2.78.1 4.57 1.62 4.57 4.5v5.1h-6.78v-3.55c.07-1.89-.74-3.18-2.78-3.18h-5.26v6.73h-6.78v-25.38Zm12.03 12.76c2.91 0 2.81-1.08 2.81-3.95 0-2.27-.57-2.92-2.81-2.92h-5.26v6.88h5.26Z"/><path d="M167.04 170.1h-6.78v-19.5h-24.43v-5.88h38.06v5.88h-6.85v19.5ZM49.71 170.1h-6.78v-25.38h6.78v25.38Z"/></svg>