<svg width="231" height="52" viewBox="0 0 231 52" fill="none" xmlns="http://www.w3.org/2000/svg">
<path d="M28.9876 1.10202C16.636 2.57298 7.02982 13.1167 7.02982 25.8894C7.02982 38.6621 16.6023 49.1497 28.9314 50.6543M22.9577 50.6543C35.2869 49.1553 44.8593 38.6396 44.8593 25.8894C44.8593 13.1392 35.2644 2.57298 22.9072 1.10202M1.21896 22.6724C2.77414 34.9566 13.2505 44.4617 25.9334 44.4617C38.6162 44.4617 49.1206 34.9622 50.6758 22.6724M50.6758 29.0896C49.1206 16.8054 38.6443 7.30027 25.9334 7.30027C13.2225 7.30027 2.77414 16.7998 1.21896 29.084M10.4939 25.8613C10.4939 34.4064 17.3939 41.3401 25.9334 41.3401C34.4728 41.3401 41.4009 34.4064 41.4009 25.8613C41.4009 17.3163 34.5009 10.3826 25.9334 10.3826C17.3658 10.3826 10.4939 17.3163 10.4939 25.8613V25.8613ZM1 25.8894H1.00561C1.00561 39.6502 12.1894 50.8452 25.939 50.8452C39.6885 50.8452 50.9004 39.6502 50.9004 25.8894C50.9004 12.1286 39.711 0.911133 25.9334 0.911133C12.1557 0.911133 1.00561 12.1062 1.00561 25.8894H1Z" stroke="#FEFEFE" stroke-width="0.63" stroke-miterlimit="1"/>
<path d="M73.3407 14.0996V30.4542C71.5385 32.8291 68.9222 34.2495 66.2498 34.2495C62.3197 34.2495 59.9786 31.7118 59.9786 27.4505V14.0996H55.5601V27.6414C55.5601 34.0586 59.6249 38.3985 65.6771 38.3985C68.5124 38.3985 71.2129 37.4722 73.3407 35.7486V37.6574H77.7592V14.0996H73.3407Z" fill="#FEFEFE"/>
<path d="M91.5931 13.3862C88.6736 13.3862 85.9731 14.3126 83.8453 16.0643V14.0993H79.4268V37.6627H83.8453V21.3642C85.6475 18.9894 88.3199 17.5689 90.9923 17.5689C94.8662 17.5689 97.2636 20.1628 97.2636 24.3398V37.6627H101.71V24.177C101.71 17.7317 97.6453 13.3918 91.5931 13.3918" fill="#FEFEFE"/>
<path d="M103.4 14.0996H107.819V37.6574H103.4V14.0996Z" fill="#FEFEFE"/>
<path d="M122.989 24.0867L118.244 23.3232C115.572 22.9414 114.292 21.987 114.292 20.4318C114.292 18.5454 116.229 17.2653 119.311 17.2653C122.859 17.2653 124.712 18.6857 125.094 21.2234L125.178 21.7175H129.322L129.265 21.0887C129.075 18.579 127.845 16.5579 125.717 15.216C123.971 14.0988 121.871 13.498 119.306 13.498C113.607 13.498 109.924 16.3894 109.924 20.6507C109.924 24.2552 112.299 26.4672 117.043 27.1746L122.416 28.0505C123.455 28.2133 125.824 28.7859 125.824 31.0261C125.824 33.0753 123.64 34.4115 120.288 34.4115C116.386 34.4115 114.123 32.9125 113.467 29.9874L113.382 29.5214H109.155C109.155 29.5214 109.183 30.0155 109.211 30.1783C109.946 35.4221 113.848 38.2574 120.176 38.2574C126.503 38.2574 130.158 35.3379 130.158 30.8015C130.158 27.1409 127.733 24.8783 122.983 24.0867" fill="#FEFEFE"/>
<path d="M176.449 14.0707V15.9571C174.349 14.3458 171.783 13.498 168.92 13.498C162.211 13.498 156.753 19.0394 156.753 25.8665C156.753 29.1958 158.033 32.3118 160.324 34.6586C162.615 36.9773 165.669 38.263 168.914 38.263C171.777 38.263 174.343 37.4152 176.443 35.832V37.6342H180.861V14.0707H176.443H176.449ZM176.449 30.532C174.703 32.9349 172.249 34.215 169.358 34.215C164.804 34.215 161.256 30.5545 161.256 25.8609C161.256 21.1673 164.883 17.5348 169.358 17.5348C172.249 17.5348 174.703 18.8205 176.449 21.2178V30.5264V30.532Z" fill="#FEFEFE"/>
<path d="M194.482 17.6978C197.839 17.6978 200.321 19.4439 201 22.3128L201.107 22.7227H205.638C205.638 22.7227 205.582 22.2286 205.553 22.0658C204.571 16.9343 200.124 13.4927 194.476 13.4927C187.492 13.4927 182.231 18.8151 182.231 25.8611C182.231 32.9071 187.498 38.2576 194.476 38.2576C200.124 38.2576 204.571 34.8441 205.553 29.7126C205.582 29.5217 205.638 29.0276 205.638 29.0276H201.107L201 29.4655C200.321 32.3064 197.834 34.0805 194.482 34.0805C189.979 34.0805 186.706 30.6108 186.706 25.8611C186.706 21.1114 189.979 17.6978 194.482 17.6978Z" fill="#FEFEFE"/>
<path d="M219.056 13.498C212.1 13.498 206.862 18.8205 206.862 25.8665C206.862 29.2519 207.872 32.3904 210.051 34.6586C212.285 36.9773 215.317 38.263 218.753 38.263C223.879 38.263 228.381 35.6691 229.774 31.5763C229.83 31.3854 229.965 30.8408 229.965 30.8408H225.271L225.136 31.1664C224.21 33.1034 221.672 34.2768 218.837 34.2768C214.8 34.2768 212.128 31.7391 211.415 27.7529H230.453C230.509 27.2588 230.537 26.2539 230.537 25.7598C230.481 18.6633 225.653 13.5037 219.056 13.5037M211.42 24.0418C212.049 20.6844 214.531 17.4899 218.977 17.4899C222.767 17.4899 225.417 19.9995 225.99 24.0418H211.426H211.42Z" fill="#FEFEFE"/>
<path d="M143.447 13.521C140.584 13.521 138.018 14.3688 135.918 16.0082V14.0993H131.5V49.6999H135.918V35.8044C138.018 37.4438 140.584 38.2915 143.447 38.2915C146.721 38.2915 149.803 37.0058 152.065 34.6871C154.356 32.3403 155.614 29.2243 155.614 25.895C155.614 22.5657 154.362 19.4498 152.065 17.131C149.803 14.8123 146.721 13.5266 143.447 13.5266M151.195 25.895C151.195 30.51 147.54 34.2492 143.066 34.2492C140.118 34.2492 137.636 32.9411 135.918 30.4539V21.3643C137.636 18.8771 140.118 17.5689 143.066 17.5689C147.54 17.5689 151.195 21.3081 151.195 25.895Z" fill="#FEFEFE"/>
</svg>
